<svg width="133" height="70" viewBox="0 0 133 70" fill="none" xmlns="http://www.w3.org/2000/svg">
<path d="M69.6402 38.6301C66.7072 64.1945 60.6004 69.0469 35.035 66.1146C9.47182 63.1816 4.62197 57.0737 7.55161 31.5094C10.4848 5.94508 16.5926 1.09523 42.1568 4.02845C67.7212 6.95928 72.5736 13.0671 69.6402 38.6315V38.6301Z" fill="url(#paint0_linear_86_26024)"/>
<path d="M120.067 19.6404C117.516 19.6404 115.393 20.6605 113.379 23.7233L105.349 35.8366L106.074 26.3831C106.343 22.8376 104.114 19.6416 100.139 19.6416C96.4324 19.6416 94.1497 22.1396 93.9345 25.2821L92.6717 42.552C92.377 46.9025 94.6051 49.3196 98.2588 49.3196C101.913 49.3196 104.006 46.8217 105.617 44.4046L113.379 32.6681L112.681 42.552C112.387 46.6078 114.508 49.3196 118.482 49.3196C122.162 49.3196 124.526 47.144 124.767 43.867L126.056 26.3819C126.298 22.9981 124.633 19.6404 120.067 19.6404ZM89.5031 40.9921C89.5031 37.0434 86.4949 34.492 82.5203 33.9819C86.2264 33.2031 89.4769 30.7586 89.4769 26.7838C89.4769 22.3786 86.0658 19.8817 79.8082 19.9079H67.1312C61.2767 19.9079 59.1007 22.2716 58.6443 28.7171L57.8919 39.5144C57.3816 46.7657 59.4493 49.0487 66.5939 49.0487H78.7333C85.7162 49.0487 89.5031 46.1749 89.5031 40.991V40.9921ZM77.524 40.2133C77.524 42.7113 75.591 43.8932 72.3675 43.8932L68.9504 43.8659C68.9504 43.8659 69.4866 40.3488 69.8314 36.8295H72.9586C75.6445 36.8295 77.524 37.9306 77.524 40.2133ZM77.6585 28.3961C77.6585 30.5445 75.913 31.8334 72.8243 31.8334H70.2535C70.2535 31.8334 70.5104 27.9157 70.3427 25.0919H73.1725C75.9928 25.0919 77.6574 26.3011 77.6574 28.3949L77.6585 28.3961Z" fill="white"/>
<path d="M49.0938 19.6868C46.516 19.6868 44.4531 20.7176 42.3913 23.7543L34.3717 35.8414L35.1158 26.4461C35.3454 22.8947 33.1114 19.6868 29.158 19.6868C25.4912 19.6868 23.2 22.1503 22.9705 25.3012L21.7102 42.602C21.4237 46.8989 23.6578 49.3615 27.2093 49.3615C30.7607 49.3615 32.9949 46.7838 34.6571 44.4342L42.3902 32.6907L41.7028 42.6009C41.3595 46.6112 43.5365 49.3601 47.4887 49.3601C51.1553 49.3601 53.5608 47.1831 53.7901 43.9183L55.0504 26.4461C55.3371 23.0088 53.676 19.6868 49.0924 19.6868H49.0938Z" fill="url(#paint1_linear_86_26024)"/>
<path d="M35.1041 26.4547L34.3599 35.8499L34.6453 44.4428C32.9831 46.7923 30.749 49.3701 27.1975 49.3701C23.646 49.3701 21.4119 46.9075 21.6985 42.6105L22.9588 25.3097C23.1883 22.1589 25.4794 19.6953 29.1463 19.6953C33.0996 19.6953 35.3337 22.9032 35.1041 26.4547Z" fill="url(#paint2_linear_86_26024)"/>
<path d="M35.1287 25.9565C35.1287 22.6796 33.0099 19.6846 29.1136 19.6846C25.2173 19.6846 22.957 22.6059 22.957 25.7567C22.957 29.137 25.4931 31.7718 29.0446 31.7718C32.5961 31.7718 35.1287 29.3355 35.1287 25.9565Z" fill="white"/>
<defs>
<linearGradient id="paint0_linear_86_26024" x1="76.5485" y1="105.096" x2="6.82684" y2="0.806076" gradientUnits="userSpaceOnUse">
<stop offset="0.798146" stop-color="#F30745"/>
<stop offset="0.976597" stop-color="#FFBCCE"/>
</linearGradient>
<linearGradient id="paint1_linear_86_26024" x1="37.0657" y1="34.3773" x2="24.6739" y2="32.8045" gradientUnits="userSpaceOnUse">
<stop offset="0.15" stop-color="white"/>
<stop offset="0.62" stop-color="white" stop-opacity="0.6"/>
<stop offset="1" stop-color="white" stop-opacity="0"/>
</linearGradient>
<linearGradient id="paint2_linear_86_26024" x1="25.6371" y1="49.1454" x2="28.999" y2="30.8097" gradientUnits="userSpaceOnUse">
<stop offset="0.15" stop-color="white"/>
<stop offset="0.62" stop-color="white" stop-opacity="0.6"/>
<stop offset="1" stop-color="white" stop-opacity="0"/>
</linearGradient>
</defs>
</svg>
